<svg width="640" height="585" viewBox="0 0 640 585" fill="none" xmlns="http://www.w3.org/2000/svg">
<g filter="url(#filter0_d_55_78)">
<mask id="path-1-inside-1_55_78" fill="white">
<path fill-rule="evenodd" clip-rule="evenodd" d="M38.8691 0C22.4236 0 9.04365 13.24 8.87071 29.6845L4.00169 492.685C3.82616 509.375 17.3731 523 34.065 523H45.5123L52.1366 576.4L83.1963 523H600.934C617.38 523 630.822 509.76 630.995 493.315L635.864 30.3155C636.04 13.6245 622.558 0 605.866 0H38.8691Z"/>
</mask>
<path fill-rule="evenodd" clip-rule="evenodd" d="M38.8691 0C22.4236 0 9.04365 13.24 8.87071 29.6845L4.00169 492.685C3.82616 509.375 17.3731 523 34.065 523H45.5123L52.1366 576.4L83.1963 523H600.934C617.38 523 630.822 509.76 630.995 493.315L635.864 30.3155C636.04 13.6245 622.558 0 605.866 0H38.8691Z" fill="#E0F2FE"/>
<path d="M8.87071 29.6845L9.87066 29.695L8.87071 29.6845ZM4.00169 492.685L5.00163 492.695L4.00169 492.685ZM45.5123 523L46.5047 522.877L46.3959 522H45.5123V523ZM52.1366 576.4L51.1442 576.524L51.5095 579.468L53.001 576.903L52.1366 576.4ZM83.1963 523V522H82.621L82.3318 522.497L83.1963 523ZM630.995 493.315L629.995 493.305L629.995 493.305L630.995 493.315ZM635.864 30.3155L634.864 30.305L634.864 30.305L635.864 30.3155ZM9.87066 29.695C10.0378 13.7986 22.9718 1 38.8691 1V-1C21.8754 -1 8.04947 12.6813 7.87077 29.674L9.87066 29.695ZM5.00163 492.695L9.87066 29.695L7.87077 29.674L3.00174 492.674L5.00163 492.695ZM34.065 522C17.9267 522 4.83199 508.827 5.00163 492.695L3.00174 492.674C2.82034 509.924 16.8196 524 34.065 524V522ZM45.5123 522H34.065V524H45.5123V522ZM53.129 576.277L46.5047 522.877L44.5199 523.123L51.1442 576.524L53.129 576.277ZM82.3318 522.497L51.2722 575.898L53.001 576.903L84.0607 523.503L82.3318 522.497ZM600.934 522H83.1963V524H600.934V522ZM629.995 493.305C629.828 509.199 616.834 522 600.934 522V524C617.925 524 631.816 510.321 631.995 493.326L629.995 493.305ZM634.864 30.305L629.995 493.305L631.995 493.326L636.864 30.326L634.864 30.305ZM605.866 1C622.001 1 635.034 14.1704 634.864 30.305L636.864 30.326C637.045 13.0787 623.114 -1 605.866 -1V1ZM38.8691 1H605.866V-1H38.8691V1Z" fill="black" fill-opacity="0.3" mask="url(#path-1-inside-1_55_78)"/>
</g>
<defs>
<filter id="filter0_d_55_78" x="0" y="0" width="639.866" height="584.4" filterUnits="userSpaceOnUse" color-interpolation-filters="sRGB">
<feFlood flood-opacity="0" result="BackgroundImageFix"/>
<feColorMatrix in="SourceAlpha" type="matrix" values="0 0 0 0 0 0 0 0 0 0 0 0 0 0 0 0 0 0 127 0" result="hardAlpha"/>
<feOffset dy="4"/>
<feGaussianBlur stdDeviation="2"/>
<feComposite in2="hardAlpha" operator="out"/>
<feColorMatrix type="matrix" values="0 0 0 0 0 0 0 0 0 0 0 0 0 0 0 0 0 0 0.25 0"/>
<feBlend mode="normal" in2="BackgroundImageFix" result="effect1_dropShadow_55_78"/>
<feBlend mode="normal" in="SourceGraphic" in2="effect1_dropShadow_55_78" result="shape"/>
</filter>
</defs>
</svg>
