<svg width="52" height="49" viewBox="0 0 52 49" fill="none" xmlns="http://www.w3.org/2000/svg">
<path d="M22.6538 32.355L18.7749 28.9581L22.6538 25.5371L26.5055 28.9581L30.3571 25.5371L26.5055 22.1402L30.3571 18.7433L34.2361 22.1402L38.0877 18.7433L30.3571 11.9253L11.0443 28.9581L18.7749 35.776L22.6538 32.355ZM0.609375 41.558L9.13214 34.0655L3.34103 28.9581L30.3571 5.10742L36.1755 10.2389L39.9998 6.81792L36.1755 3.39691L39.9998 0L51.6094 10.2389L47.7577 13.6117L43.8788 10.2389L39.9998 13.6117L45.8183 18.7433L18.7749 42.5698L12.9838 37.4624L0.609375 48.4V41.558Z" fill="black"/>
</svg>
