<svg width="60" height="50" viewBox="0 0 60 50" fill="none" xmlns="http://www.w3.org/2000/svg">
<path d="M46.3636 44.5825C47.4486 44.5825 48.4891 44.0966 49.2563 43.2316C50.0235 42.3667 50.4545 41.1937 50.4545 39.9705C50.4545 38.7473 50.0235 37.5742 49.2563 36.7093C48.4891 35.8444 47.4486 35.3585 46.3636 35.3585C45.2787 35.3585 44.2381 35.8444 43.4709 36.7093C42.7037 37.5742 42.2727 38.7473 42.2727 39.9705C42.2727 41.1937 42.7037 42.3667 43.4709 43.2316C44.2381 44.0966 45.2787 44.5825 46.3636 44.5825ZM50.4545 16.9106H43.6364V24.5972H55.8L50.4545 16.9106ZM13.6364 44.5825C14.7213 44.5825 15.7619 44.0966 16.5291 43.2316C17.2963 42.3667 17.7273 41.1937 17.7273 39.9705C17.7273 38.7473 17.2963 37.5742 16.5291 36.7093C15.7619 35.8444 14.7213 35.3585 13.6364 35.3585C12.5514 35.3585 11.5108 35.8444 10.7437 36.7093C9.97646 37.5742 9.54545 38.7473 9.54545 39.9705C9.54545 41.1937 9.97646 42.3667 10.7437 43.2316C11.5108 44.0966 12.5514 44.5825 13.6364 44.5825ZM51.8182 12.2986L60 24.5972V39.9705H54.5455C54.5455 42.4168 53.6834 44.763 52.1491 46.4928C50.6147 48.2226 48.5336 49.1944 46.3636 49.1944C44.1937 49.1944 42.1126 48.2226 40.5782 46.4928C39.0438 44.763 38.1818 42.4168 38.1818 39.9705H21.8182C21.8182 42.4168 20.9562 44.763 19.4218 46.4928C17.8874 48.2226 15.8063 49.1944 13.6364 49.1944C11.4664 49.1944 9.38533 48.2226 7.85094 46.4928C6.31656 44.763 5.45455 42.4168 5.45455 39.9705H0V6.14931C0 2.73644 2.42727 0 5.45455 0H43.6364V12.2986H51.8182ZM19.0909 6.14931V15.3733H10.9091V21.5226H19.0909V30.7465H24.5455V21.5226H32.7273V15.3733H24.5455V6.14931H19.0909Z" fill="black"/>
</svg>
