<svg width="48" height="51" viewBox="0 0 48 51" fill="none" xmlns="http://www.w3.org/2000/svg">
<path d="M32.52 35.9471C41.58 37.384 48 41.0644 48 45.375V50.4167H0V45.375C0 41.0644 6.42 37.384 15.48 35.9471L24 47.8958L32.52 35.9471ZM12 15.125H36V20.1667C36 22.8409 34.7357 25.4057 32.4853 27.2967C30.2348 29.1877 27.1826 30.25 24 30.25C20.8174 30.25 17.7652 29.1877 15.5147 27.2967C13.2643 25.4057 12 22.8409 12 20.1667V15.125ZM12 12.6042L13.23 2.26875C13.38 0.983125 14.67 0 16.23 0H31.8C33.33 0 34.62 0.983125 34.77 2.26875L36 12.6042H12ZM24 2.52083H21V5.04167H18V7.5625H21V10.0833H24V7.5625H27V5.04167H24V2.52083Z" fill="black"/>
</svg>
