<svg width="290" height="41" viewBox="0 0 290 41" fill="none" xmlns="http://www.w3.org/2000/svg">
<path d="M285.444 0C286.653 0 287.811 0.479959 288.666 1.33429C289.52 2.18862 290 3.34735 290 4.55556V36.4444C290 37.6527 289.52 38.8114 288.666 39.6657C287.811 40.52 286.653 41 285.444 41H253.556C252.347 41 251.189 40.52 250.334 39.6657C249.48 38.8114 249 37.6527 249 36.4444V4.55556C249 3.34735 249.48 2.18862 250.334 1.33429C251.189 0.479959 252.347 0 253.556 0H285.444ZM284.306 35.3056V23.2333C284.306 21.264 283.523 19.3752 282.131 17.9827C280.738 16.5901 278.849 15.8078 276.88 15.8078C274.944 15.8078 272.689 16.9922 271.596 18.7689V16.2406H265.241V35.3056H271.596V24.0761C271.596 22.3222 273.008 20.8872 274.762 20.8872C275.607 20.8872 276.419 21.2232 277.017 21.8212C277.615 22.4193 277.951 23.2304 277.951 24.0761V35.3056H284.306ZM257.838 12.6644C258.853 12.6644 259.826 12.2613 260.544 11.5436C261.261 10.826 261.664 9.85267 261.664 8.83778C261.664 6.71944 259.956 4.98833 257.838 4.98833C256.817 4.98833 255.838 5.3939 255.116 6.11581C254.394 6.83772 253.988 7.81684 253.988 8.83778C253.988 10.9561 255.719 12.6644 257.838 12.6644ZM261.004 35.3056V16.2406H254.694V35.3056H261.004Z" fill="black"/>
<path d="M20.5 0C9.22499 0 0 9.24147 0 20.6235C0 30.9147 7.50299 39.4563 17.302 41V26.5924H12.095V20.6235H17.302V16.0748C17.302 10.9086 20.3565 8.06827 25.051 8.06827C27.2855 8.06827 29.6225 8.45934 29.6225 8.45934V13.5432H27.0395C24.4975 13.5432 23.698 15.128 23.698 16.754V20.6235H29.397L28.4745 26.5924H23.698V41C28.5287 40.234 32.9275 37.7593 36.1003 34.0227C39.2731 30.2861 41.0109 25.5337 41 20.6235C41 9.24147 31.775 0 20.5 0Z" fill="black"/>
<path d="M210.454 4.82353C208.597 5.66765 206.595 6.22235 204.521 6.48765C206.644 5.20941 208.284 3.18353 209.055 0.747647C207.054 1.95353 204.835 2.79765 202.495 3.28C200.59 1.20588 197.913 0 194.874 0C189.206 0 184.576 4.63059 184.576 10.3465C184.576 11.1665 184.672 11.9624 184.841 12.71C176.255 12.2759 168.61 8.15176 163.521 1.90529C162.629 3.42471 162.122 5.20941 162.122 7.09059C162.122 10.6841 163.931 13.8676 166.729 15.6765C165.016 15.6765 163.425 15.1941 162.026 14.4706C162.026 14.4706 162.026 14.4706 162.026 14.5429C162.026 19.5594 165.595 23.7559 170.322 24.6965C169.454 24.9376 168.538 25.0582 167.597 25.0582C166.946 25.0582 166.295 24.9859 165.668 24.8653C166.97 28.9412 170.756 31.98 175.315 32.0524C171.794 34.85 167.332 36.49 162.46 36.49C161.64 36.49 160.82 36.4418 160 36.3453C164.582 39.2876 170.033 41 175.869 41C194.874 41 205.317 25.2271 205.317 11.5524C205.317 11.0941 205.317 10.66 205.293 10.2018C207.319 8.7547 209.055 6.92176 210.454 4.82353Z" fill="black"/>
<path d="M91.89 0H109.11C115.67 0 121 5.33 121 11.89V29.11C121 32.2634 119.747 35.2877 117.518 37.5175C115.288 39.7473 112.263 41 109.11 41H91.89C85.33 41 80 35.67 80 29.11V11.89C80 8.73658 81.2527 5.71231 83.4825 3.4825C85.7123 1.25269 88.7366 0 91.89 0ZM91.48 4.1C89.5227 4.1 87.6456 4.87753 86.2616 6.26155C84.8775 7.64557 84.1 9.5227 84.1 11.48V29.52C84.1 33.5995 87.4005 36.9 91.48 36.9H109.52C111.477 36.9 113.354 36.1225 114.738 34.7384C116.122 33.3544 116.9 31.4773 116.9 29.52V11.48C116.9 7.4005 113.599 4.1 109.52 4.1H91.48ZM111.262 7.175C111.942 7.175 112.594 7.44498 113.074 7.92554C113.555 8.4061 113.825 9.05788 113.825 9.7375C113.825 10.4171 113.555 11.0689 113.074 11.5495C112.594 12.03 111.942 12.3 111.262 12.3C110.583 12.3 109.931 12.03 109.451 11.5495C108.97 11.0689 108.7 10.4171 108.7 9.7375C108.7 9.05788 108.97 8.4061 109.451 7.92554C109.931 7.44498 110.583 7.175 111.262 7.175ZM100.5 10.25C103.218 10.25 105.826 11.3299 107.748 13.2522C109.67 15.1744 110.75 17.7815 110.75 20.5C110.75 23.2185 109.67 25.8256 107.748 27.7478C105.826 29.6701 103.218 30.75 100.5 30.75C97.7815 30.75 95.1744 29.6701 93.2522 27.7478C91.3299 25.8256 90.25 23.2185 90.25 20.5C90.25 17.7815 91.3299 15.1744 93.2522 13.2522C95.1744 11.3299 97.7815 10.25 100.5 10.25ZM100.5 14.35C98.8689 14.35 97.3046 14.9979 96.1513 16.1513C94.9979 17.3046 94.35 18.8689 94.35 20.5C94.35 22.1311 94.9979 23.6954 96.1513 24.8487C97.3046 26.0021 98.8689 26.65 100.5 26.65C102.131 26.65 103.695 26.0021 104.849 24.8487C106.002 23.6954 106.65 22.1311 106.65 20.5C106.65 18.8689 106.002 17.3046 104.849 16.1513C103.695 14.9979 102.131 14.35 100.5 14.35Z" fill="black"/>
</svg>
