<svg width="296" height="271" viewBox="0 0 296 271" fill="none" xmlns="http://www.w3.org/2000/svg">
<path d="M27.4922 125.353L136.902 25.4626C173.268 -7.59871 231.919 -7.59871 268.286 25.4626C304.497 58.524 304.497 112.213 268.286 145.416L158.876 245.306C122.51 278.368 63.704 278.368 27.4922 245.306C-8.71965 212.104 -8.71965 158.556 27.4922 125.353ZM49.4669 145.416C33.218 160.11 27.8017 181.162 33.3728 199.953L126.069 115.463L191.684 175.369L246.311 125.353C270.607 103.312 270.607 67.5664 246.311 45.5255C222.17 23.3433 183.017 23.3433 158.876 45.5255L49.4669 145.416Z" fill="#D6DAF5" fill-opacity="0.5"/>
</svg>
